<svg width="512" height="512" viewBox="0 0 512 512" fill="none" xmlns="http://www.w3.org/2000/svg">
<path d="M413.867 156.587L355.413 98.1333C347.784 90.9674 337.787 86.8556 327.324 86.5803C316.861 86.305 306.662 89.8852 298.667 96.64L106.667 288.64C99.771 295.594 95.4774 304.708 94.5067 314.453L85.3333 403.413C85.046 406.538 85.4514 409.688 86.5208 412.638C87.5902 415.588 89.2971 418.265 91.52 420.48C93.5134 422.457 95.8775 424.021 98.4767 425.083C101.076 426.145 103.859 426.683 106.667 426.667H108.587L197.547 418.56C207.292 417.589 216.406 413.296 223.36 406.4L415.36 214.4C422.812 206.527 426.839 196.021 426.56 185.185C426.28 174.348 421.715 164.064 413.867 156.587ZM193.707 375.893L129.707 381.867L135.467 317.867L256 198.827L313.6 256.427L193.707 375.893ZM341.333 227.84L284.16 170.667L325.76 128L384 186.24L341.333 227.84Z" fill="gray"/>
</svg>
