<?xml version="1.0" encoding="UTF-8"?>
<svg width="1200pt" height="1200pt" version="1.1" viewBox="0 0 1200 1200" xmlns="http://www.w3.org/2000/svg">
 <path d="m524.4 217.2c-8.3984-3.6016-18-2.3984-25.199 6l-217.2 217.2h-164.4c-32.398 0-57.602 25.199-57.602 56.398v205.2c0 30 25.199 57.602 57.602 57.602h163.2 2.3984l217.2 214.8c4.8008 4.8008 9.6016 8.3984 15.602 8.3984 13.199 0 22.801-13.199 22.801-25.199v-717.6c-1.1992-10.801-6-19.199-14.402-22.801zm73.203 276c55.199 58.801 55.199 151.2 0 211.2l69.602 69.602c98.398-98.398 98.398-255.6 0-350.4zm139.2-141.6c135.6 135.6 135.6 357.6 0 494.4l70.801 70.801c176.4-176.4 176.4-458.4 0-634.8z"/>
</svg>
