<svg width="50" height="50" viewBox="0 0 50 50" fill="none" xmlns="http://www.w3.org/2000/svg">
<path d="M40.1679 37.957C40.313 38.1022 40.4282 38.2746 40.5068 38.4642C40.5853 38.6539 40.6258 38.8572 40.6258 39.0625C40.6258 39.2678 40.5853 39.4711 40.5068 39.6608C40.4282 39.8505 40.313 40.0228 40.1679 40.168C40.0227 40.3132 39.8503 40.4283 39.6607 40.5069C39.471 40.5854 39.2677 40.6259 39.0624 40.6259C38.8571 40.6259 38.6538 40.5854 38.4641 40.5069C38.2744 40.4283 38.1021 40.3132 37.9569 40.168L24.9999 27.209L12.0429 40.168C11.7497 40.4612 11.352 40.6259 10.9374 40.6259C10.5228 40.6259 10.1251 40.4612 9.83192 40.168C9.53873 39.8748 9.37402 39.4771 9.37402 39.0625C9.37402 38.6479 9.53873 38.2502 9.83192 37.957L22.7909 25L9.83192 12.043C9.53873 11.7498 9.37402 11.3521 9.37402 10.9375C9.37402 10.5229 9.53873 10.1252 9.83192 9.83205C10.1251 9.53886 10.5228 9.37415 10.9374 9.37415C11.352 9.37415 11.7497 9.53886 12.0429 9.83205L24.9999 22.791L37.9569 9.83205C38.2501 9.53886 38.6478 9.37415 39.0624 9.37415C39.477 9.37415 39.8747 9.53886 40.1679 9.83205C40.4611 10.1252 40.6258 10.5229 40.6258 10.9375C40.6258 11.3521 40.4611 11.7498 40.1679 12.043L27.2089 25L40.1679 37.957Z" fill="black"/>
</svg>
