<svg width="22" height="16" viewBox="0 0 22 16" fill="none" xmlns="http://www.w3.org/2000/svg">
<path d="M11 0.75C8.1675 0.75 5.94 2.90188 5.62856 5.64844C5.02951 5.74497 4.46769 6.00167 4.00259 6.39137C3.53749 6.78108 3.18641 7.28928 2.9865 7.86219C1.29525 8.34963 0 9.858 0 11.75C0 14.0352 1.83975 15.875 4.125 15.875H17.875C20.1602 15.875 22 14.0352 22 11.75C22 10.54 21.4122 9.4565 20.5604 8.69888C20.4009 6.283 18.4738 4.35525 16.049 4.23013C15.2212 2.21644 13.3224 0.75 11 0.75ZM11 2.125C12.8989 2.125 14.4169 3.34187 14.9531 5.0675L15.1044 5.5625H15.8125C17.7066 5.5625 19.25 7.10594 19.25 9V9.34375L19.5291 9.55894C19.866 9.81712 20.1397 10.1486 20.3296 10.5282C20.5195 10.9078 20.6205 11.3256 20.625 11.75C20.625 13.3147 19.4398 14.5 17.875 14.5H4.125C2.56025 14.5 1.375 13.3147 1.375 11.75C1.375 10.3612 2.37188 9.28325 3.63 9.06462L4.08169 8.97869L4.16762 8.52631C4.37387 7.60025 5.19475 6.9375 6.1875 6.9375H6.875V6.25C6.875 3.93313 8.68313 2.125 11 2.125ZM11 5.97087L10.505 6.44319L7.755 9.19319L8.745 10.1832L10.3125 8.61294V13.125H11.6875V8.61294L13.255 10.1818L14.245 9.19181L11.495 6.44181L11 5.97087Z" fill="black"/>
</svg>
