<svg width="19" height="16" viewBox="0 0 19 16" fill="none" xmlns="http://www.w3.org/2000/svg">
<path d="M-0.25 1.5C-0.25 1.31766 -0.177567 1.1428 -0.0486358 1.01386C0.0802955 0.884933 0.255164 0.8125 0.4375 0.8125H15.5625C15.7448 0.8125 15.9197 0.884933 16.0486 1.01386C16.1776 1.1428 16.25 1.31766 16.25 1.5C16.25 1.68234 16.1776 1.8572 16.0486 1.98614C15.9197 2.11507 15.7448 2.1875 15.5625 2.1875H0.4375C0.255164 2.1875 0.0802955 2.11507 -0.0486358 1.98614C-0.177567 1.8572 -0.25 1.68234 -0.25 1.5ZM0.4375 7.6875H10.75C10.9323 7.6875 11.1072 7.61507 11.2361 7.48614C11.3651 7.35721 11.4375 7.18234 11.4375 7C11.4375 6.81766 11.3651 6.6428 11.2361 6.51386C11.1072 6.38493 10.9323 6.3125 10.75 6.3125H0.4375C0.255164 6.3125 0.0802955 6.38493 -0.0486358 6.51386C-0.177567 6.6428 -0.25 6.81766 -0.25 7C-0.25 7.18234 -0.177567 7.35721 -0.0486358 7.48614C0.0802955 7.61507 0.255164 7.6875 0.4375 7.6875ZM6.625 11.8125H0.4375C0.255164 11.8125 0.0802955 11.8849 -0.0486358 12.0139C-0.177567 12.1428 -0.25 12.3177 -0.25 12.5C-0.25 12.6823 -0.177567 12.8572 -0.0486358 12.9861C0.0802955 13.1151 0.255164 13.1875 0.4375 13.1875H6.625C6.80734 13.1875 6.9822 13.1151 7.11114 12.9861C7.24007 12.8572 7.3125 12.6823 7.3125 12.5C7.3125 12.3177 7.24007 12.1428 7.11114 12.0139C6.9822 11.8849 6.80734 11.8125 6.625 11.8125ZM18.2833 6.85391C18.2573 6.94072 18.2145 7.02155 18.1572 7.09175C18.0999 7.16194 18.0292 7.22011 17.9494 7.26292C17.8695 7.30573 17.782 7.33232 17.6918 7.34118C17.6016 7.35004 17.5106 7.34098 17.4239 7.31453L14.875 6.54883V12.5C14.876 13.1066 14.6767 13.6966 14.308 14.1783C13.9394 14.66 13.422 15.0066 12.8362 15.1642C12.2504 15.3218 11.629 15.2816 11.0684 15.0498C10.5078 14.818 10.0394 14.4077 9.73591 13.8824C9.43241 13.3572 9.31081 12.7465 9.38996 12.1451C9.46911 11.5436 9.7446 10.9852 10.1737 10.5563C10.6027 10.1275 11.1613 9.85233 11.7628 9.7735C12.3643 9.69467 12.9749 9.81661 13.5 10.1204V5.625C13.5 5.51783 13.5251 5.41215 13.5732 5.3164C13.6214 5.22065 13.6912 5.13748 13.7772 5.07353C13.8632 5.00957 13.963 4.96661 14.0685 4.94806C14.1741 4.92952 14.2825 4.93591 14.3852 4.96672L17.8227 5.99797C17.9972 6.05043 18.1438 6.17007 18.2302 6.33057C18.3165 6.49108 18.3357 6.67932 18.2833 6.85391ZM13.5 12.5C13.5 12.2281 13.4194 11.9622 13.2683 11.7361C13.1172 11.51 12.9024 11.3337 12.6512 11.2297C12.3999 11.1256 12.1235 11.0984 11.8568 11.1514C11.59 11.2045 11.345 11.3354 11.1527 11.5277C10.9604 11.72 10.8295 11.965 10.7764 12.2318C10.7234 12.4985 10.7506 12.7749 10.8547 13.0262C10.9587 13.2774 11.135 13.4922 11.3611 13.6433C11.5872 13.7944 11.8531 13.875 12.125 13.875C12.4897 13.875 12.8394 13.7301 13.0973 13.4723C13.3551 13.2144 13.5 12.8647 13.5 12.5Z" fill="black"/>
</svg>
