<svg width="22" height="22" viewBox="0 0 22 22" fill="none" xmlns="http://www.w3.org/2000/svg">
<path d="M11 20.1666C16.0628 20.1666 20.1667 16.0627 20.1667 10.9999C20.1667 5.93717 16.0628 1.83325 11 1.83325C5.93726 1.83325 1.83334 5.93717 1.83334 10.9999C1.83334 16.0627 5.93726 20.1666 11 20.1666Z" stroke="black" stroke-width="1.83333" stroke-linecap="round" stroke-linejoin="round"/>
<path d="M11 10.5416C11.6078 10.5416 12.1907 10.3001 12.6205 9.87037C13.0502 9.4406 13.2917 8.85771 13.2917 8.24992C13.2917 7.64213 13.0502 7.05924 12.6205 6.62947C12.1907 6.19969 11.6078 5.95825 11 5.95825C10.3922 5.95825 9.80933 6.19969 9.37956 6.62947C8.94979 7.05924 8.70834 7.64213 8.70834 8.24992C8.70834 8.85771 8.94979 9.4406 9.37956 9.87037C9.80933 10.3001 10.3922 10.5416 11 10.5416Z" stroke="black" stroke-width="1.83333" stroke-linejoin="round"/>
<path d="M4.59341 17.5687C4.75108 15.1803 6.73841 13.2915 9.16666 13.2915H12.8333C15.2584 13.2915 17.2439 15.1753 17.4061 17.559" stroke="black" stroke-width="1.83333" stroke-linecap="round" stroke-linejoin="round"/>
</svg>
