<svg width="44" height="182" viewBox="0 0 44 182" fill="none" xmlns="http://www.w3.org/2000/svg">
<mask id="path-1-inside-1_299_144" fill="white">
<path fill-rule="evenodd" clip-rule="evenodd" d="M43.2056 0L10.1146 29.2945C3.68252 34.9885 0 43.1667 0 51.7571V129.74C0 138.33 3.68251 146.508 10.1146 152.203L43.2056 181.497V0Z"/>
</mask>
<path fill-rule="evenodd" clip-rule="evenodd" d="M43.2056 0L10.1146 29.2945C3.68252 34.9885 0 43.1667 0 51.7571V129.74C0 138.33 3.68251 146.508 10.1146 152.203L43.2056 181.497V0Z" fill="white"/>
<path d="M43.2056 0H44.2056V-2.22082L42.5427 -0.748754L43.2056 0ZM10.1146 29.2945L9.45171 28.5457L10.1146 29.2945ZM10.1146 152.203L10.7774 151.454H10.7774L10.1146 152.203ZM43.2056 181.497L42.5427 182.246L44.2056 183.718V181.497H43.2056ZM42.5427 -0.748754L9.45171 28.5457L10.7774 30.0432L43.8684 0.748754L42.5427 -0.748754ZM9.45171 28.5457C2.80527 34.4296 -1 42.8804 -1 51.7571H1C1 43.4531 4.55977 35.5475 10.7774 30.0432L9.45171 28.5457ZM-1 51.7571V129.74H1V51.7571H-1ZM-1 129.74C-1 138.617 2.80526 147.067 9.45171 152.951L10.7774 151.454C4.55976 145.949 1 138.044 1 129.74H-1ZM9.4517 152.951L42.5427 182.246L43.8684 180.748L10.7774 151.454L9.4517 152.951ZM44.2056 181.497V0H42.2056V181.497H44.2056Z" fill="black" mask="url(#path-1-inside-1_299_144)"/>
<line x1="23.5" y1="61" x2="23.5" y2="121" stroke="#52A9F9" stroke-width="3"/>
</svg>
