<svg width="19" height="17" viewBox="0 0 19 17" fill="none" xmlns="http://www.w3.org/2000/svg">
<path d="M11.4583 4.58333H10.0833V9.16667L14.0067 11.495L14.6667 10.3858L11.4583 8.47917V4.58333ZM11 0C8.81196 0 6.71354 0.869194 5.16637 2.41637C3.61919 3.96354 2.75 6.06196 2.75 8.25H0L3.63 11.9442L7.33333 8.25H4.58333C4.58333 6.54819 5.25937 4.91609 6.46273 3.71273C7.66609 2.50937 9.29819 1.83333 11 1.83333C12.7018 1.83333 14.3339 2.50937 15.5373 3.71273C16.7406 4.91609 17.4167 6.54819 17.4167 8.25C17.4167 9.95181 16.7406 11.5839 15.5373 12.7873C14.3339 13.9906 12.7018 14.6667 11 14.6667C9.23083 14.6667 7.62667 13.9425 6.47167 12.7783L5.17 14.08C5.93231 14.8504 6.84048 15.4612 7.84147 15.8767C8.84246 16.2922 9.91621 16.5041 11 16.5C13.188 16.5 15.2865 15.6308 16.8336 14.0836C18.3808 12.5365 19.25 10.438 19.25 8.25C19.25 6.06196 18.3808 3.96354 16.8336 2.41637C15.2865 0.869194 13.188 0 11 0Z" fill="black"/>
</svg>
